<?xml version="1.0" encoding="UTF-8" standalone="no"?>
<!-- Created with Inkscape (http://www.inkscape.org/) -->

<svg
   xmlns:dc="http://purl.org/dc/elements/1.1/"
   xmlns:cc="http://creativecommons.org/ns#"
   xmlns:rdf="http://www.w3.org/1999/02/22-rdf-syntax-ns#"
   xmlns:svg="http://www.w3.org/2000/svg"
   xmlns="http://www.w3.org/2000/svg"
   xmlns:xlink="http://www.w3.org/1999/xlink"
   xmlns:sodipodi="http://sodipodi.sourceforge.net/DTD/sodipodi-0.dtd"
   xmlns:inkscape="http://www.inkscape.org/namespaces/inkscape"
   width="210mm"
   height="297mm"
   id="svg2"
   version="1.1"
   inkscape:version="0.48.0 r9654"
   inkscape:export-filename="C:\Users\mnanba\Desktop\kerome.png"
   inkscape:export-xdpi="12.478234"
   inkscape:export-ydpi="12.478234"
   sodipodi:docname="新規ドキュメント 1">
  <defs
     id="defs4">
    <linearGradient
       id="linearGradient3939">
      <stop
         style="stop-color:#3e9c00;stop-opacity:1;"
         offset="0"
         id="stop3941" />
      <stop
         style="stop-color:#b3ff80;stop-opacity:0;"
         offset="1"
         id="stop3943" />
    </linearGradient>
    <linearGradient
       id="linearGradient3931">
      <stop
         style="stop-color:#000000;stop-opacity:1;"
         offset="0"
         id="stop3933" />
      <stop
         style="stop-color:#000000;stop-opacity:0;"
         offset="1"
         id="stop3935" />
    </linearGradient>
    <linearGradient
       id="linearGradient3762">
      <stop
         style="stop-color:#b3ff80;stop-opacity:1;"
         offset="0"
         id="stop3764" />
      <stop
         style="stop-color:#ffffff;stop-opacity:1;"
         offset="1"
         id="stop3766" />
    </linearGradient>
    <linearGradient
       inkscape:collect="always"
       xlink:href="#linearGradient3762"
       id="linearGradient3768"
       x1="346.10876"
       y1="760.48029"
       x2="411.62759"
       y2="371.90881"
       gradientUnits="userSpaceOnUse" />
    <linearGradient
       inkscape:collect="always"
       xlink:href="#linearGradient3772-9"
       id="linearGradient3778-1"
       x1="-674.78577"
       y1="414.16104"
       x2="-1250.9287"
       y2="351.30396"
       gradientUnits="userSpaceOnUse"
       gradientTransform="translate(1231.4285,74.285714)" />
    <linearGradient
       inkscape:collect="always"
       id="linearGradient3772-9">
      <stop
         style="stop-color:#b3ff80;stop-opacity:1;"
         offset="0"
         id="stop3774-7" />
      <stop
         style="stop-color:#b3ff80;stop-opacity:0;"
         offset="1"
         id="stop3776-6" />
    </linearGradient>
    <linearGradient
       inkscape:collect="always"
       xlink:href="#linearGradient3762-0"
       id="linearGradient3768-2"
       x1="346.10876"
       y1="760.48029"
       x2="411.62759"
       y2="371.90881"
       gradientUnits="userSpaceOnUse" />
    <linearGradient
       inkscape:collect="always"
       id="linearGradient3762-0">
      <stop
         style="stop-color:#b3ff80;stop-opacity:1;"
         offset="0"
         id="stop3764-3" />
      <stop
         style="stop-color:#b3ff80;stop-opacity:0;"
         offset="1"
         id="stop3766-7" />
    </linearGradient>
    <linearGradient
       inkscape:collect="always"
       xlink:href="#linearGradient3772-9"
       id="linearGradient3865"
       gradientUnits="userSpaceOnUse"
       gradientTransform="translate(1230.7143,63.915417)"
       x1="-794.78577"
       y1="511.30389"
       x2="-1250.9287"
       y2="351.30396" />
  </defs>
  <sodipodi:namedview
     id="base"
     pagecolor="#ffffff"
     bordercolor="#666666"
     borderopacity="1.0"
     inkscape:pageopacity="0.0"
     inkscape:pageshadow="2"
     inkscape:zoom="0.24748737"
     inkscape:cx="-1870.0434"
     inkscape:cy="845.30305"
     inkscape:document-units="px"
     inkscape:current-layer="layer2"
     showgrid="false"
     inkscape:window-width="1920"
     inkscape:window-height="1026"
     inkscape:window-x="792"
     inkscape:window-y="-8"
     inkscape:window-maximized="1" />
  <metadata
     id="metadata7">
    <rdf:RDF>
      <cc:Work
         rdf:about="">
        <dc:format>image/svg+xml</dc:format>
        <dc:type
           rdf:resource="http://purl.org/dc/dcmitype/StillImage" />
        <dc:title></dc:title>
      </cc:Work>
    </rdf:RDF>
  </metadata>
  <g
     inkscape:label="レイヤー 1"
     inkscape:groupmode="layer"
     id="layer1"
     style="display:inline">
    <path
       style="fill:url(#linearGradient3768);fill-opacity:1;stroke:none"
       d="m 157.14286,429.50505 c 51.42857,-37.14286 393.75755,-37.28389 442.85713,11.42857 48.57143,57.14286 48.99936,284.95774 5.71429,325.7143 -45.71429,34.28571 -408.57142,34.28571 -451.42856,0 -42.85714,-40 -40.78258,-288.46044 2.85714,-337.14287 z"
       id="rect2991"
       inkscape:connector-curvature="0"
       sodipodi:nodetypes="ccccc"
       inkscape:export-filename="C:\Users\mnanba\Desktop\kerome.png"
       inkscape:export-xdpi="12.6"
       inkscape:export-ydpi="12.6" />
  </g>
  <g
     inkscape:groupmode="layer"
     id="layer2"
     inkscape:label="レイヤー"
     style="display:inline">
    <path
       style="fill:url(#linearGradient3865);fill-opacity:1;stroke:none;display:inline"
       d="m 360.76334,403.33036 c -91.7807,-0.0705 -179.799,9.21429 -203.9062,26.625 -4.5967,5.12783 -8.7358,12.50999 -12.4062,21.59375 99.6977,92.13641 226.25,190.4375 226.25,190.4375 0,0 146.1294,-69.68514 254.7187,-139.3125 -6.1185,-26.44883 -14.6705,-48.28334 -25.7187,-61.28125 -26.0842,-25.87849 -134.9194,-37.98256 -238.9376,-38.0625 z"
       id="path3770"
       inkscape:connector-curvature="0"
       inkscape:export-filename="C:\Users\mnanba\Desktop\kerome.png"
       inkscape:export-xdpi="12.6"
       inkscape:export-ydpi="12.6" />
    <path
       style="fill:#6ca300;fill-opacity:1;stroke:none"
       d="m 368.4182,564.42091 c -11.59412,-0.73267 -19.55731,16.45296 -11.46292,25.48511 1.29925,7.24565 8.81056,12.2883 7.79302,20.11029 -2.80584,5.88208 -12.35649,2.31773 -12.43951,-3.96975 1.36718,-5.98 -1.61967,-12.42291 -7.10441,-14.7278 -7.26051,-4.06441 -17.64476,-0.56934 -20.07757,8.07755 -2.38896,7.46098 1.53236,17.69985 9.58255,18.58256 6.48081,2.47616 11.49774,8.32442 12.09415,15.68968 2.61775,7.90079 6.36325,15.32405 9.15019,23.1489 5.37197,11.04244 19.59382,15.96949 29.95411,9.90426 6.18801,-2.42581 7.27544,-11.09074 13.53182,-13.37231 6.13108,3.06159 10.93799,10.71144 18.48447,9.3504 10.38634,-0.69533 17.47632,-14.65019 11.60583,-23.96297 -3.07861,-6.40657 -10.48021,-9.07205 -16.83156,-7.1828 -4.59997,0.74577 -11.48862,7.67388 -13.84273,-0.19112 -0.20895,-4.65294 -3.49804,-8.91448 -3.33286,-12.92578 3.99429,-8.50713 15.86727,-7.25256 19.79067,-15.94963 5.10086,-9.6764 -0.448,-24.82973 -11.66256,-25.4812 -10.45805,-0.92153 -18.87066,11.87018 -14.89119,22.02194 0.45987,4.60999 -3.72098,10.30255 -8.3165,9.21419 -3.29514,-3.31568 -1.72439,-8.89795 -1.49056,-13.19797 0.48112,-4.34278 2.4064,-8.2879 4.03185,-12.17861 1.45932,-8.9548 -5.68952,-18.89863 -14.56629,-18.44494 z"
       id="path3867"
       inkscape:connector-curvature="0"
       inkscape:export-filename="C:\Users\mnanba\Desktop\kerome.png"
       inkscape:export-xdpi="12.6"
       inkscape:export-ydpi="12.6" />
  </g>
</svg>
